<svg xmlns="http://www.w3.org/2000/svg" width="334" height="391" fill="none">
  <path fill="#343434"
    d="M41.306 18.733v334.05H19.112c-10.341 0-18.725 8.384-18.725 18.725 0 10.342 8.384 18.725 18.725 18.725h81.836c10.342 0 18.726-8.383 18.726-18.725 0-10.341-8.384-18.725-18.726-18.725H78.756V214.921h236.262c10.341 0 18.725-8.384 18.725-18.726 0-3.703-1.075-7.155-2.93-10.061l-49.573-64.826s-1.078-1.378-1.078-3.167c0-1.788 1.078-3.414 1.078-3.414l49.573-64.826a18.637 18.637 0 0 0 2.93-10.061c0-10.342-8.384-18.726-18.725-18.726H78.756v-2.38C78.756 8.391 70.372.007 60.03.007c-10.341 0-18.725 8.384-18.725 18.725Z" />
</svg>